HIERARCHY
ROOT Hips
{
	OFFSET 49.443501 5.088712 49.021000
	CHANNELS 6 Xposition Yposition Zposition Xrotation Yrotation Zrotation
	JOINT spine
	{
		OFFSET 0.000000 -0.359108 6.244801
		CHANNELS 3 Xrotation Yrotation Zrotation
		JOINT spine1
		{
			OFFSET 0.000000 -0.000001 9.069412
			CHANNELS 3 Xrotation Yrotation Zrotation
			JOINT spine2
			{
				OFFSET 0.000000 -0.000001 8.690140
				CHANNELS 3 Xrotation Yrotation Zrotation
				JOINT Neck
				{
					OFFSET 0.000000 -1.063724 22.311195
					CHANNELS 3 Xrotation Yrotation Zrotation
					JOINT Head
					{
						OFFSET 0.000000 -0.000001 6.740807
						CHANNELS 3 Xrotation Yrotation Zrotation
						End Site
						{
							OFFSET 0.000000 5.380967 16.316498
						}
					}
				}
				JOINT RightShoulder
				{
					OFFSET -3.659161 0.509512 9.384682
					CHANNELS 3 Xrotation Yrotation Zrotation
					JOINT RightArm
					{
						OFFSET 0.000000 -0.000002 12.308899
						CHANNELS 3 Xrotation Yrotation Zrotation
						JOINT RightArmRoll
						{
							OFFSET 0.000000 -0.000001 6.213753
							CHANNELS 3 Xrotation Yrotation Zrotation
							JOINT RightForeArm
							{
								OFFSET 0.000000 -0.000003 18.098503
								CHANNELS 3 Xrotation Yrotation Zrotation
								JOINT RightForeArmRoll
								{
									OFFSET 0.000000 -0.000001 6.972801
									CHANNELS 3 Xrotation Yrotation Zrotation
									JOINT RightHand
									{
										OFFSET 0.000000 -0.000002 13.992897
										CHANNELS 3 Xrotation Yrotation Zrotation
										End Site
										{
											OFFSET 0.000000 0.000000 0.100006
										}
									}
								}
							}
						}
					}
				}
				JOINT LeftShoulder
				{
					OFFSET 3.659161 0.509512 9.384682
					CHANNELS 3 Xrotation Yrotation Zrotation
					JOINT LeftArm
					{
						OFFSET 0.000000 -0.000002 12.308899
						CHANNELS 3 Xrotation Yrotation Zrotation
						JOINT LeftArmRoll
						{
							OFFSET 0.000000 -0.000001 6.213753
							CHANNELS 3 Xrotation Yrotation Zrotation
							JOINT LeftForeArm
							{
								OFFSET 0.000000 -0.000003 18.098503
								CHANNELS 3 Xrotation Yrotation Zrotation
								JOINT LeftForeArmRoll
								{
									OFFSET 0.000000 -0.000001 6.972801
									CHANNELS 3 Xrotation Yrotation Zrotation
									JOINT LeftHand
									{
										OFFSET 0.000000 -0.000002 13.992897
										CHANNELS 3 Xrotation Yrotation Zrotation
										End Site
										{
											OFFSET 0.000000 0.000000 0.100006
										}
									}
								}
							}
						}
					}
				}
			}
		}
	}
	JOINT RightUpLeg
	{
		OFFSET -5.535160 0.851455 -1.014999
		CHANNELS 3 Xrotation Yrotation Zrotation
		JOINT RightUpLegRoll
		{
			OFFSET 0.000000 -0.000003 16.407497
			CHANNELS 3 Xrotation Yrotation Zrotation
			JOINT RightLeg
			{
				OFFSET 0.000000 0.000003 -20.318100
				CHANNELS 3 Xrotation Yrotation Zrotation
				JOINT RightLegRoll
				{
					OFFSET 0.000000 -0.000003 20.384598
					CHANNELS 3 Xrotation Yrotation Zrotation
					JOINT RightFoot
					{
						OFFSET 0.000000 -0.000003 16.966797
						CHANNELS 3 Xrotation Yrotation Zrotation
						JOINT RightToeBase
						{
							OFFSET 0.000000 -0.000002 14.183403
							CHANNELS 3 Xrotation Yrotation Zrotation
							End Site
							{
								OFFSET 0.006012 0.791744 6.868896
							}
						}
					}
				}
			}
		}
	}
	JOINT LeftUpLeg
	{
		OFFSET 5.535160 0.851455 -1.014999
		CHANNELS 3 Xrotation Yrotation Zrotation
		JOINT LeftUpLegRoll
		{
			OFFSET 0.000000 -0.000003 16.407604
			CHANNELS 3 Xrotation Yrotation Zrotation
			JOINT LeftLeg
			{
				OFFSET 0.000000 -0.000003 20.318100
				CHANNELS 3 Xrotation Yrotation Zrotation
				JOINT LeftLegRoll
				{
					OFFSET 0.000000 -0.000003 20.573097
					CHANNELS 3 Xrotation Yrotation Zrotation
					JOINT LeftFoot
					{
						OFFSET 0.000000 -0.000003 16.778297
						CHANNELS 3 Xrotation Yrotation Zrotation
						JOINT LeftToeBase
						{
							OFFSET 0.000000 -0.000002 14.183395
							CHANNELS 3 Xrotation Yrotation Zrotation
							End Site
							{
								OFFSET -0.026943 0.791745 6.868896
							}
						}
					}
				}
			}
		}
	}
}
MOTION
Frames: 13
Frame Time: 0.041667
49.732197 -32.045406 84.393402 2.292135 0.354269 -2.997970 -1.963222 0.207224 0.048619 0.076173 0.398317 0.106701 1.721262 0.399510 0.101912 8.022762 -4.971760 -2.597765 7.781699 0.646208 -1.997287 -7.509103 -67.889341 -9.458814 -42.685356 -112.922445 -38.310767 0.000002 0.000000 0.000000 16.493001 -13.699273 1.548708 0.000003 0.000003 -2.999990 -5.000220 -7.998705 0.000191 -18.041699 60.078160 21.316069 -30.496337 115.092731 14.216134 0.000000 0.000000 -0.000003 12.087408 2.302531 0.241394 0.000001 -0.000004 3.000000 -5.000154 7.999841 -0.000035 -8.017794 -179.829674 -1.568012 -179.999991 0.000005 -0.923000 170.087994 -0.807762 -0.884143 -0.000001 0.000002 0.239082 70.948112 6.528353 2.970264 25.456962 -7.355616 0.000002 -1.879657 179.322368 -1.022402 -0.000005 -0.000004 -1.095880 -9.316724 1.767794 0.853902 0.000003 0.000002 -0.220993 72.357392 -7.014193 -1.524054 27.360824 7.357035 -0.245960 
49.728199 -32.044407 84.396896 2.294624 0.357684 -3.003992 -1.961144 0.207633 0.047724 0.080344 0.400188 0.103950 1.725433 0.401351 0.099138 8.071357 -4.992625 -2.609312 7.814750 0.652858 -2.009200 -7.496853 -67.919599 -9.447195 -42.663643 -112.881109 -38.154649 0.000001 -0.000000 0.000000 16.390250 -13.624411 1.521318 0.000002 0.000004 -2.999990 -5.000220 -7.998704 0.000191 -18.046828 60.055784 21.322145 -30.361922 115.070178 14.045702 -0.000001 0.000000 -0.000001 12.056094 2.280541 0.244484 -0.000002 -0.000005 2.999998 -5.000154 7.999840 -0.000035 -7.999363 -179.813828 -1.538163 -179.999991 0.000005 -0.923997 170.119426 -0.844297 -0.884052 -0.000001 0.000002 0.235377 70.925333 6.536022 2.951192 25.456962 -7.355618 0.000002 -1.886929 179.322368 -1.020016 -0.000005 -0.000004 -1.095880 -9.313523 1.767810 0.853985 0.000004 0.000001 -0.221000 72.361005 -7.015704 -1.520263 27.349406 7.357038 -0.244374 
49.740097 -32.031605 84.398911 2.297221 0.361064 -3.010165 -1.959154 0.208114 0.046804 0.084318 0.402213 0.101110 1.729403 0.403346 0.096275 8.118193 -5.014701 -2.620258 7.852015 0.661537 -2.020660 -7.483574 -67.951988 -9.434577 -42.646912 -112.837621 -38.001182 0.000000 0.000000 -0.000000 16.290556 -13.547687 1.494146 -0.000001 0.000004 -2.999990 -5.000221 -7.998704 0.000191 -18.052540 60.032691 21.328932 -30.225172 115.048348 13.872205 -0.000000 -0.000000 -0.000001 12.023881 2.258297 0.247598 0.000000 -0.000004 3.000000 -5.000157 7.999839 -0.000035 -7.979642 -179.796984 -1.507117 -179.999991 0.000005 -0.924994 170.152088 -0.882807 -0.884244 -0.000001 0.000002 0.231549 70.902029 6.544042 2.931214 25.456962 -7.355619 0.000002 -1.894469 179.322368 -1.017606 -0.000005 -0.000004 -1.095880 -9.310942 1.767803 0.854112 0.000004 0.000001 -0.221011 72.365144 -7.017187 -1.516634 27.337989 7.357038 -0.242780 
49.730896 -32.023403 84.409500 2.299886 0.364417 -3.016446 -1.957244 0.208644 0.045866 0.088154 0.404347 0.098209 1.733244 0.405449 0.093349 8.163819 -5.037636 -2.630752 7.892212 0.671630 -2.031791 -7.469555 -67.985941 -9.421239 -42.630329 -112.794195 -37.845952 -0.000001 0.000000 -0.000001 16.193257 -13.469726 1.467290 0.000001 0.000004 -2.999991 -5.000221 -7.998704 0.000191 -18.058694 60.009140 21.336230 -30.089698 115.024798 13.699895 0.000001 0.000000 0.000000 11.991068 2.235888 0.250713 -0.000001 -0.000004 3.000000 -5.000154 7.999841 -0.000036 -7.959011 -179.780128 -1.475120 -179.999991 0.000005 -0.926005 170.185542 -0.922308 -0.884548 -0.000001 0.000002 0.227635 70.878389 6.552352 2.910508 25.456964 -7.355618 0.000002 -1.902190 179.323365 -1.015208 -0.000005 -0.000004 -1.095880 -9.308791 1.767765 0.854266 0.000003 0.000001 -0.221025 72.369693 -7.018649 -1.513075 27.326368 7.357043 -0.241155 
49.738899 -32.012306 84.408798 2.302599 0.367757 -3.022788 -1.955365 0.209203 0.044917 0.091911 0.406542 0.095271 1.737004 0.407614 0.090387 8.208732 -5.061056 -2.640982 7.934089 0.682525 -2.042750 -7.455064 -68.020706 -9.407421 -42.616747 -112.749238 -37.692932 0.000000 -0.000000 0.000001 16.097142 -13.391102 1.440694 0.000003 0.000003 -2.999990 -5.000221 -7.998704 0.000191 -18.065157 59.985447 21.343895 -29.952507 115.002149 13.525381 -0.000001 0.000000 0.000000 11.957753 2.213367 0.253832 0.000002 -0.000005 3.000001 -5.000153 7.999840 -0.000034 -7.937869 -179.762314 -1.442723 -179.999991 0.000005 -0.927002 170.219475 -0.961819 -0.884786 -0.000001 0.000002 0.223670 70.854600 6.560818 2.889440 25.456962 -7.355619 0.000003 -1.910031 179.323365 -1.012776 -0.000005 -0.000004 -1.095880 -9.306890 1.767725 0.854438 0.000003 0.000002 -0.221040 72.374474 -7.020126 -1.509405 27.314847 7.357041 -0.239533 
49.747501 -31.995308 84.395599 2.305308 0.371091 -3.029150 -1.953503 0.209769 0.043966 0.095648 0.408753 0.092325 1.740734 0.409792 0.087415 8.253496 -5.084619 -2.651117 7.976388 0.693607 -2.053675 -7.440435 -68.055684 -9.393470 -42.602943 -112.704207 -37.539447 0.000001 -0.000001 0.000002 16.001520 -13.312145 1.414367 -0.000001 0.000004 -2.999990 -5.000223 -7.998704 0.000191 -18.071618 59.961534 21.351542 -29.815077 114.979623 13.350645 0.000000 0.000000 -0.000002 11.924344 2.190821 0.256928 -0.000003 -0.000005 3.000001 -5.000155 7.999841 -0.000032 -7.916587 -179.745444 -1.410047 -179.999991 0.000005 -0.927999 170.253503 -1.002321 -0.885156 -0.000001 0.000002 0.219694 70.830721 6.569353 2.868294 25.456964 -7.355618 0.000002 -1.917880 179.323379 -1.010333 -0.000005 -0.000004 -1.095880 -9.305048 1.767675 0.854612 0.000004 0.000001 -0.221056 72.379248 -7.021571 -1.505831 27.303229 7.357044 -0.237908 
49.747791 -31.985912 84.401505 2.308011 0.374433 -3.035481 -1.951613 0.210320 0.043020 0.099425 0.410932 0.089397 1.744515 0.411940 0.084461 8.298598 -5.107962 -2.661346 8.017847 0.704267 -2.064708 -7.425981 -68.090238 -9.379678 -42.587479 -112.659913 -37.384774 0.000001 -0.000000 0.000000 15.905303 -13.233607 1.388327 0.000001 0.000003 -2.999989 -5.000218 -7.998704 0.000191 -18.077967 59.937847 21.359069 -29.677834 114.957316 13.176271 -0.000000 -0.000000 -0.000001 11.891141 2.168315 0.259983 -0.000001 -0.000005 3.000001 -5.000152 7.999839 -0.000033 -7.895560 -179.727603 -1.377767 -179.999991 0.000005 -0.928997 170.287298 -1.041847 -0.885315 -0.000001 0.000002 0.215742 70.806946 6.577858 2.847239 25.456959 -7.355619 0.000002 -1.925692 179.323379 -1.007891 -0.000005 -0.000004 -1.095880 -9.303087 1.767626 0.854779 0.000002 0.000001 -0.221070 72.383920 -7.023049 -1.502267 27.291614 7.357044 -0.236283 
49.755699 -31.972610 84.403107 2.310662 0.377792 -3.041734 -1.949685 0.210836 0.042086 0.103301 0.413032 0.086511 1.748386 0.414010 0.081552 8.344570 -5.130728 -2.671820 8.057211 0.713890 -2.076004 -7.411989 -68.123665 -9.366333 -42.568153 -112.616883 -37.227400 -0.000000 -0.000000 0.000001 15.807692 -13.155825 1.362570 -0.000000 0.000003 -2.999991 -5.000221 -7.998704 0.000191 -18.084008 59.914508 21.366222 -29.539509 114.936060 13.000976 0.000001 0.000000 0.000000 11.858540 2.145938 0.262990 -0.000001 -0.000005 3.000000 -5.000155 7.999840 -0.000035 -7.875182 -179.710760 -1.345998 -179.999991 0.000005 -0.931004 170.320520 -1.081393 -0.884430 -0.000001 0.000002 0.211852 70.783409 6.586168 2.826841 25.456964 -7.355619 0.000002 -1.933363 179.323379 -1.005470 -0.000005 -0.000004 -1.095880 -9.300817 1.767608 0.854927 0.000003 0.000002 -0.221083 72.388387 -7.024539 -1.498517 27.280086 7.357041 -0.234672 
49.762001 -31.953407 84.402008 2.313218 0.381179 -3.047868 -1.947664 0.211295 0.041173 0.107333 0.415009 0.083696 1.752417 0.415957 0.078714 8.391955 -5.152579 -2.682722 8.093203 0.721866 -2.087679 -7.398781 -68.155459 -9.353745 -42.546952 -112.574536 -37.070251 -0.000000 -0.000000 0.000001 15.707697 -13.079340 1.337086 0.000003 0.000004 -2.999990 -5.000221 -7.998703 0.000191 -18.089536 59.891661 21.372767 -29.402014 114.915160 12.826935 -0.000000 -0.000000 0.000000 11.826546 2.123764 0.265938 -0.000002 -0.000005 3.000000 -5.000156 7.999839 -0.000032 -7.855834 -179.694887 -1.315167 -179.999991 0.000005 -0.932002 170.352759 -1.118948 -0.885186 -0.000001 0.000002 0.208061 70.760316 6.594194 2.807173 25.456964 -7.355617 0.000002 -1.940822 179.323379 -1.003072 -0.000005 -0.000004 -1.095880 -9.298053 1.767602 0.855040 0.000004 0.000001 -0.221093 72.392403 -7.025991 -1.494890 27.268665 7.357038 -0.233078 
49.767197 -31.943405 84.376404 2.315671 0.384604 -3.053813 -1.945542 0.211676 0.040289 0.111583 0.416815 0.080977 1.756667 0.417734 0.075974 8.441252 -5.173147 -2.694239 8.124578 0.727586 -2.099856 -7.386663 -68.184863 -9.342229 -42.520018 -112.534128 -36.910103 -0.000000 0.000000 0.000001 15.604525 -13.004683 1.311921 0.000001 0.000003 -2.999990 -5.000219 -7.998704 0.000191 -18.094360 59.869518 21.378480 -29.265154 114.894560 12.654246 0.000000 -0.000000 -0.000001 11.795752 2.101849 0.268809 -0.000000 -0.000004 3.000000 -5.000157 7.999840 -0.000031 -7.837891 -179.679027 -1.285795 -179.999991 0.000005 -0.932002 170.383727 -1.155537 -0.884765 -0.000001 0.000002 0.204406 70.737728 6.601829 2.788511 25.456962 -7.355619 0.000003 -1.947980 179.323379 -1.000697 -0.000005 -0.000004 -1.095880 -9.294604 1.767640 0.855108 0.000003 0.000001 -0.221099 72.395811 -7.027536 -1.491017 27.257354 7.357041 -0.231502 
49.776493 -31.934605 84.384903 2.317971 0.388079 -3.059549 -1.943283 0.211957 0.039440 0.116109 0.418403 0.078381 1.761198 0.419295 0.073360 8.493004 -5.192082 -2.706545 8.150070 0.730439 -2.112695 -7.375996 -68.211303 -9.332127 -42.487718 -112.495811 -36.748077 -0.000000 -0.000000 0.000001 15.497076 -12.932399 1.287055 -0.000001 0.000004 -2.999990 -5.000218 -7.998704 0.000191 -18.098302 59.848324 21.383150 -29.128506 114.875299 12.482441 -0.000001 0.000000 0.000002 11.766267 2.080291 0.271592 0.000001 -0.000004 3.000001 -5.000157 7.999840 -0.000034 -7.821776 -179.664151 -1.258146 -179.999991 0.000005 -0.932999 170.413001 -1.189163 -0.884836 -0.000001 0.000002 0.200924 70.715920 6.608956 2.771221 25.456960 -7.355617 0.000002 -1.954774 179.323393 -0.998367 -0.000005 -0.000004 -1.095880 -9.290301 1.767720 0.855119 0.000003 0.000001 -0.221100 72.398366 -7.029097 -1.487298 27.246130 7.357042 -0.229953 
49.771595 -31.912907 84.378899 2.320103 0.391615 -3.065017 -1.940854 0.212117 0.038635 0.120969 0.419728 0.075933 1.766057 0.420593 0.070897 8.547724 -5.209048 -2.719805 8.168436 0.729815 -2.126314 -7.367016 -68.234041 -9.323665 -42.446357 -112.460929 -36.581110 0.000001 -0.000000 0.000001 15.384562 -12.863012 1.262517 0.000001 0.000004 -2.999990 -5.000218 -7.998704 0.000191 -18.101186 59.828222 21.386552 -28.993149 114.856475 12.312991 -0.000000 0.000000 -0.000001 11.738390 2.059145 0.274276 -0.000001 -0.000005 3.000000 -5.000154 7.999840 -0.000033 -7.807835 -179.650272 -1.232626 -179.999991 0.000005 -0.933996 170.440295 -1.220808 -0.884582 -0.000000 0.000002 0.197652 70.695081 6.615439 2.755465 25.456962 -7.355618 0.000002 -1.961113 179.323393 -0.996083 -0.000005 -0.000004 -1.095880 -9.284939 1.767856 0.855058 0.000004 0.000001 -0.221095 72.400074 -7.030701 -1.483240 27.235123 7.357039 -0.228445 
49.774601 -31.900707 84.372002 2.322028 0.395220 -3.070166 -1.938232 0.212135 0.037881 0.126224 0.420743 0.073661 1.771308 0.421583 0.068614 8.605943 -5.223681 -2.734205 8.178384 0.725112 -2.140847 -7.360130 -68.252550 -9.317269 -42.397542 -112.428752 -36.411728 0.000001 -0.000000 -0.000000 15.265973 -12.796965 1.238277 -0.000000 0.000003 -2.999991 -5.000220 -7.998705 0.000191 -18.102786 59.809412 21.388447 -28.857437 114.839918 12.144204 -0.000001 0.000000 -0.000002 11.712521 2.038501 0.276852 0.000002 -0.000006 2.999997 -5.000153 7.999840 -0.000033 -7.796485 -179.637377 -1.209649 -179.999991 0.000005 -0.934993 170.465211 -1.249498 -0.883855 -0.000001 0.000002 0.194627 70.675143 6.621178 2.741831 25.456962 -7.355618 0.000002 -1.966914 179.323393 -0.993854 -0.000005 -0.000004 -1.095880 -9.278347 1.768057 0.854916 0.000003 0.000001 -0.221082 72.400606 -7.032370 -1.479166 27.224313 7.357040 -0.226972 
